<?xml version="1.0" encoding="UTF-8"?>
<svg xmlns="http://www.w3.org/2000/svg" xmlns:xlink="http://www.w3.org/1999/xlink" width="60px" height="60px" viewBox="0 0 60 60" version="1.1">
<g id="surface1">
<path style=" stroke:none;fill-rule:nonzero;fill:rgb(100%,100%,100%);fill-opacity:1;" d="M 53.609375 15.109375 C 55.914062 15.109375 57.777344 16.976562 57.777344 19.277344 C 57.777344 21.578125 55.914062 23.445312 53.609375 23.445312 L 53.609375 23.027344 C 55.683594 23.027344 57.359375 21.347656 57.359375 19.277344 C 57.359375 17.207031 55.683594 15.527344 53.609375 15.527344 C 51.539062 15.527344 49.859375 17.207031 49.859375 19.277344 L 49.445312 19.277344 C 49.445312 16.976562 51.308594 15.109375 53.609375 15.109375 Z M 53.609375 15.945312 C 55.453125 15.945312 56.945312 17.4375 56.945312 19.277344 C 56.945312 21.117188 55.453125 22.609375 53.609375 22.609375 L 53.609375 22.195312 C 55.222656 22.195312 56.527344 20.886719 56.527344 19.277344 C 56.527344 17.667969 55.222656 16.359375 53.609375 16.359375 C 52 16.359375 50.695312 17.667969 50.695312 19.277344 L 50.277344 19.277344 C 50.277344 17.4375 51.769531 15.945312 53.609375 15.945312 Z M 53.609375 16.777344 C 54.992188 16.777344 56.109375 17.898438 56.109375 19.277344 C 56.109375 20.660156 54.992188 21.777344 53.609375 21.777344 L 53.609375 21.359375 C 54.761719 21.359375 55.695312 20.429688 55.695312 19.277344 C 55.695312 18.128906 54.761719 17.195312 53.609375 17.195312 C 52.460938 17.195312 51.527344 18.128906 51.527344 19.277344 L 51.109375 19.277344 C 51.109375 17.898438 52.230469 16.777344 53.609375 16.777344 Z M 53.609375 16.777344 "/>
<path style=" stroke:none;fill-rule:nonzero;fill:rgb(100%,100%,100%);fill-opacity:1;" d="M 9.253906 29.828125 L 13.789062 29.828125 C 14.53125 29.828125 15.164062 29.578125 15.675781 29.078125 C 16.195312 28.570312 16.457031 27.859375 16.457031 26.941406 C 16.457031 26.253906 16.1875 25.636719 15.644531 25.09375 C 15.101562 24.546875 14.480469 24.269531 13.789062 24.269531 L 7.082031 24.269531 L 7.082031 38.332031 L 6.300781 38.332031 L 6.300781 23.488281 L 13.789062 23.488281 C 14.699219 23.488281 15.503906 23.839844 16.195312 24.542969 C 16.890625 25.242188 17.238281 26.042969 17.238281 26.941406 C 17.238281 28.046875 16.902344 28.9375 16.230469 29.609375 C 15.554688 30.273438 14.742188 30.609375 13.789062 30.609375 L 9.253906 30.609375 Z M 9.253906 31.390625 L 13.789062 31.390625 C 14.539062 31.390625 15.234375 31.207031 15.871094 30.847656 C 16.515625 30.476562 17.03125 29.949219 17.421875 29.261719 C 17.820312 28.574219 18.019531 27.800781 18.019531 26.941406 C 18.019531 25.824219 17.59375 24.84375 16.738281 23.988281 C 15.894531 23.136719 14.910156 22.707031 13.789062 22.707031 L 5.519531 22.707031 L 5.519531 38.332031 L 4.738281 38.332031 L 4.738281 21.925781 L 13.789062 21.925781 C 14.664062 21.925781 15.488281 22.160156 16.261719 22.621094 C 17.035156 23.085938 17.652344 23.703125 18.105469 24.476562 C 18.570312 25.25 18.800781 26.070312 18.800781 26.941406 C 18.800781 27.925781 18.570312 28.820312 18.105469 29.632812 C 17.644531 30.433594 17.027344 31.058594 16.261719 31.507812 C 15.503906 31.949219 14.675781 32.171875 13.789062 32.171875 L 9.253906 32.171875 Z M 9.253906 32.953125 L 13.789062 32.953125 C 14.5625 32.953125 15.304688 32.800781 16.011719 32.496094 C 16.722656 32.183594 17.335938 31.769531 17.855469 31.246094 C 18.386719 30.71875 18.804688 30.082031 19.117188 29.339844 C 19.425781 28.585938 19.582031 27.785156 19.582031 26.941406 C 19.582031 25.925781 19.316406 24.976562 18.789062 24.085938 C 18.261719 23.1875 17.550781 22.476562 16.652344 21.949219 C 15.761719 21.414062 14.808594 21.144531 13.789062 21.144531 L 3.957031 21.144531 L 3.957031 38.332031 L 3.175781 38.332031 L 3.175781 20.363281 L 13.789062 20.363281 C 14.945312 20.363281 16.03125 20.667969 17.042969 21.277344 C 18.054688 21.875 18.863281 22.683594 19.460938 23.695312 C 20.0625 24.707031 20.363281 25.789062 20.363281 26.941406 C 20.363281 27.96875 20.1875 28.914062 19.832031 29.78125 C 19.476562 30.644531 19 31.359375 18.398438 31.929688 C 17.800781 32.503906 17.101562 32.949219 16.304688 33.265625 C 15.507812 33.578125 14.671875 33.734375 13.789062 33.734375 L 9.253906 33.734375 Z M 8.644531 38.332031 L 7.863281 38.332031 L 7.863281 25.050781 L 13.789062 25.050781 C 14.300781 25.050781 14.742188 25.238281 15.113281 25.617188 C 15.488281 25.992188 15.675781 26.433594 15.675781 26.941406 C 15.675781 28.34375 15.046875 29.046875 13.789062 29.046875 L 9.253906 29.046875 L 9.253906 28.265625 L 13.789062 28.265625 C 14.136719 28.265625 14.40625 28.167969 14.601562 27.972656 C 14.796875 27.777344 14.894531 27.433594 14.894531 26.941406 C 14.894531 26.621094 14.785156 26.359375 14.570312 26.148438 C 14.359375 25.9375 14.097656 25.832031 13.789062 25.832031 L 8.644531 25.832031 Z M 35.640625 26.507812 L 35 26.929688 C 34.609375 26.351562 34.101562 25.894531 33.472656 25.5625 C 32.847656 25.222656 32.171875 25.050781 31.441406 25.050781 C 30.253906 25.050781 29.242188 25.472656 28.402344 26.3125 C 27.566406 27.148438 27.144531 28.164062 27.144531 29.347656 C 27.144531 30.535156 27.566406 31.546875 28.402344 32.386719 C 29.242188 33.226562 30.253906 33.644531 31.441406 33.644531 C 32.171875 33.644531 32.847656 33.476562 33.472656 33.136719 C 34.101562 32.796875 34.609375 32.335938 35 31.757812 L 35.628906 32.214844 C 35.167969 32.894531 34.566406 33.433594 33.828125 33.832031 C 33.089844 34.226562 32.296875 34.425781 31.441406 34.425781 C 30.753906 34.425781 30.097656 34.292969 29.46875 34.027344 C 28.84375 33.757812 28.304688 33.394531 27.851562 32.941406 C 27.394531 32.484375 27.03125 31.945312 26.765625 31.324219 C 26.496094 30.695312 26.363281 30.035156 26.363281 29.347656 C 26.363281 28.660156 26.496094 28.007812 26.765625 27.386719 C 27.03125 26.753906 27.394531 26.214844 27.851562 25.757812 C 28.304688 25.300781 28.84375 24.941406 29.46875 24.671875 C 30.097656 24.40625 30.753906 24.269531 31.441406 24.269531 C 32.300781 24.269531 33.101562 24.472656 33.839844 24.878906 C 34.578125 25.277344 35.179688 25.820312 35.640625 26.507812 Z M 36.933594 25.617188 L 36.28125 26.039062 C 35.746094 25.257812 35.050781 24.640625 34.199219 24.183594 C 33.351562 23.722656 32.433594 23.488281 31.441406 23.488281 C 30.378906 23.488281 29.398438 23.753906 28.5 24.28125 C 27.605469 24.800781 26.890625 25.511719 26.363281 26.410156 C 25.84375 27.304688 25.582031 28.285156 25.582031 29.347656 C 25.582031 30.414062 25.84375 31.390625 26.363281 32.289062 C 26.890625 33.1875 27.605469 33.898438 28.5 34.425781 C 29.398438 34.949219 30.378906 35.207031 31.441406 35.207031 C 32.433594 35.207031 33.355469 34.976562 34.207031 34.515625 C 35.0625 34.050781 35.757812 33.425781 36.292969 32.636719 L 36.933594 33.082031 C 36.324219 33.980469 35.535156 34.6875 34.566406 35.207031 C 33.605469 35.730469 32.5625 35.988281 31.441406 35.988281 C 30.242188 35.988281 29.128906 35.691406 28.109375 35.101562 C 27.089844 34.507812 26.285156 33.699219 25.691406 32.679688 C 25.097656 31.660156 24.800781 30.550781 24.800781 29.347656 C 24.800781 28.148438 25.097656 27.039062 25.691406 26.019531 C 26.285156 24.996094 27.089844 24.191406 28.109375 23.597656 C 29.128906 23.003906 30.242188 22.707031 31.441406 22.707031 C 32.5625 22.707031 33.605469 22.96875 34.566406 23.488281 C 35.535156 24.011719 36.324219 24.71875 36.933594 25.617188 Z M 38.234375 24.75 L 37.582031 25.171875 C 36.902344 24.171875 36.019531 23.382812 34.9375 22.804688 C 33.859375 22.21875 32.691406 21.925781 31.441406 21.925781 C 30.4375 21.925781 29.472656 22.121094 28.554688 22.511719 C 27.636719 22.902344 26.84375 23.433594 26.179688 24.097656 C 25.519531 24.753906 24.996094 25.542969 24.605469 26.460938 C 24.214844 27.382812 24.019531 28.34375 24.019531 29.347656 C 24.019531 30.355469 24.214844 31.316406 24.605469 32.234375 C 24.996094 33.152344 25.519531 33.945312 26.179688 34.613281 C 26.84375 35.269531 27.636719 35.792969 28.554688 36.183594 C 29.472656 36.574219 30.4375 36.769531 31.441406 36.769531 C 32.699219 36.769531 33.867188 36.476562 34.945312 35.890625 C 36.023438 35.304688 36.902344 34.515625 37.582031 33.515625 L 38.210938 33.980469 C 37.460938 35.082031 36.488281 35.953125 35.292969 36.597656 C 34.109375 37.234375 32.824219 37.550781 31.441406 37.550781 C 29.957031 37.550781 28.589844 37.1875 27.328125 36.457031 C 26.070312 35.71875 25.074219 34.71875 24.335938 33.460938 C 23.605469 32.203125 23.238281 30.832031 23.238281 29.347656 C 23.238281 27.867188 23.605469 26.496094 24.335938 25.238281 C 25.074219 23.976562 26.070312 22.984375 27.328125 22.253906 C 28.589844 21.515625 29.957031 21.144531 31.441406 21.144531 C 32.832031 21.144531 34.121094 21.472656 35.316406 22.121094 C 36.507812 22.765625 37.480469 23.640625 38.234375 24.75 Z M 39.515625 23.859375 L 38.863281 24.28125 C 38.039062 23.074219 36.972656 22.117188 35.664062 21.417969 C 34.359375 20.714844 32.953125 20.363281 31.441406 20.363281 C 30.226562 20.363281 29.0625 20.601562 27.949219 21.082031 C 26.839844 21.550781 25.886719 22.1875 25.082031 22.992188 C 24.28125 23.792969 23.640625 24.75 23.164062 25.867188 C 22.691406 26.972656 22.457031 28.132812 22.457031 29.347656 C 22.457031 30.5625 22.691406 31.730469 23.164062 32.84375 C 23.640625 33.949219 24.28125 34.90625 25.082031 35.707031 C 25.886719 36.511719 26.839844 37.152344 27.949219 37.628906 C 29.0625 38.097656 30.226562 38.332031 31.441406 38.332031 C 32.953125 38.332031 34.363281 37.980469 35.671875 37.269531 C 36.984375 36.5625 38.050781 35.601562 38.875 34.394531 L 39.503906 34.871094 C 38.605469 36.175781 37.449219 37.207031 36.03125 37.976562 C 34.613281 38.734375 33.082031 39.113281 31.441406 39.113281 C 30.117188 39.113281 28.851562 38.855469 27.644531 38.332031 C 26.441406 37.820312 25.40625 37.128906 24.53125 36.261719 C 23.660156 35.386719 22.96875 34.347656 22.445312 33.148438 C 21.933594 31.9375 21.675781 30.671875 21.675781 29.347656 C 21.675781 28.023438 21.933594 26.761719 22.445312 25.5625 C 22.96875 24.355469 23.660156 23.316406 24.53125 22.449219 C 25.40625 21.574219 26.441406 20.878906 27.644531 20.363281 C 28.851562 19.84375 30.117188 19.582031 31.441406 19.582031 C 33.089844 19.582031 34.625 19.964844 36.042969 20.734375 C 37.460938 21.5 38.617188 22.542969 39.515625 23.859375 Z M 40.675781 21.144531 L 40.675781 20.363281 L 52.394531 20.363281 L 52.394531 21.144531 Z M 40.675781 22.707031 L 40.675781 21.925781 L 52.394531 21.925781 L 52.394531 22.707031 Z M 40.675781 24.269531 L 40.675781 23.488281 L 52.394531 23.488281 L 52.394531 24.269531 L 49.269531 24.269531 L 49.269531 38.332031 L 48.488281 38.332031 L 48.488281 24.269531 L 47.707031 24.269531 L 47.707031 38.332031 L 46.925781 38.332031 L 46.925781 24.269531 L 46.144531 24.269531 L 46.144531 38.332031 L 45.363281 38.332031 L 45.363281 24.269531 L 44.582031 24.269531 L 44.582031 38.332031 L 43.800781 38.332031 L 43.800781 24.269531 Z M 40.675781 24.269531 "/>
</g>
</svg>
