<svg width="1080" height="1080" viewBox="0 0 1080 1080" fill="none" xmlns="http://www.w3.org/2000/svg">
<path d="M965 272C1006.42 272 1040 305.579 1040 347C1040 388.421 1006.42 422 965 422V414.5C1002.28 414.5 1032.5 384.279 1032.5 347C1032.5 309.721 1002.28 279.5 965 279.5C927.721 279.5 897.5 309.721 897.5 347H890C890 305.579 923.579 272 965 272ZM965 287C998.137 287 1025 313.863 1025 347C1025 380.137 998.137 407 965 407V399.5C993.995 399.5 1017.5 375.995 1017.5 347C1017.5 318.005 993.995 294.5 965 294.5C936.005 294.5 912.5 318.005 912.5 347H905C905 313.863 931.863 287 965 287ZM965 302C989.853 302 1010 322.147 1010 347C1010 371.853 989.853 392 965 392V384.5C985.711 384.5 1002.5 367.711 1002.5 347C1002.5 326.289 985.711 309.5 965 309.5C944.289 309.5 927.5 326.289 927.5 347H920C920 322.147 940.147 302 965 302Z" fill="#010101"/>
<path d="M166.539 536.875H248.18C261.591 536.875 272.919 532.383 282.164 523.398C291.539 514.284 296.227 501.458 296.227 484.922C296.227 472.552 291.344 461.484 281.578 451.719C271.812 441.823 260.68 436.875 248.18 436.875H127.477V690H113.414V422.812H248.18C264.586 422.812 279.039 429.128 291.539 441.758C304.039 454.388 310.289 468.776 310.289 484.922C310.289 504.844 304.234 520.859 292.125 532.969C280.016 544.948 265.367 550.938 248.18 550.938H166.539V536.875ZM166.539 565H248.18C261.721 565 274.221 561.745 285.68 555.234C297.268 548.594 306.578 539.089 313.609 526.719C320.771 514.349 324.352 500.417 324.352 484.922C324.352 464.87 316.669 447.161 301.305 431.797C286.07 416.432 268.362 408.75 248.18 408.75H99.3516V690H85.2891V394.688H248.18C263.935 394.688 278.779 398.854 292.711 407.188C306.643 415.521 317.711 426.654 325.914 440.586C334.247 454.518 338.414 469.297 338.414 484.922C338.414 502.63 334.247 518.776 325.914 533.359C317.581 547.812 306.513 559.076 292.711 567.148C279.039 575.091 264.195 579.062 248.18 579.062H166.539V565ZM166.539 593.125H248.18C262.112 593.125 275.458 590.391 288.219 584.922C300.979 579.323 312.047 571.836 321.422 562.461C330.927 552.956 338.479 541.497 344.078 528.086C349.677 514.544 352.477 500.156 352.477 484.922C352.477 466.693 347.724 449.57 338.219 433.555C328.714 417.409 315.888 404.583 299.742 395.078C283.727 385.443 266.539 380.625 248.18 380.625H71.2266V690H57.1641V366.562H248.18C269.013 366.562 288.544 372.031 306.773 382.969C325.003 393.776 339.521 408.294 350.328 426.523C361.135 444.753 366.539 464.219 366.539 484.922C366.539 503.411 363.349 520.469 356.969 536.094C350.589 551.589 341.995 564.479 331.188 574.766C320.38 585.052 307.815 593.06 293.492 598.789C279.169 604.388 264.065 607.188 248.18 607.188H166.539V593.125ZM155.602 690H141.539V450.938H248.18C257.424 450.938 265.367 454.323 272.008 461.094C278.779 467.865 282.164 475.807 282.164 484.922C282.164 510.182 270.836 522.812 248.18 522.812H166.539V508.75H248.18C254.43 508.75 259.312 506.992 262.828 503.477C266.344 499.961 268.102 493.776 268.102 484.922C268.102 479.193 266.148 474.44 262.242 470.664C258.466 466.888 253.779 465 248.18 465H155.602V690ZM641.539 477.109L630.016 484.727C622.984 474.31 613.805 466.107 602.477 460.117C591.279 453.997 579.104 450.938 565.953 450.938C544.599 450.938 526.37 458.49 511.266 473.594C496.161 488.698 488.609 506.927 488.609 528.281C488.609 549.635 496.161 567.865 511.266 582.969C526.37 598.073 544.599 605.625 565.953 605.625C579.104 605.625 591.279 602.565 602.477 596.445C613.805 590.326 622.984 582.057 630.016 571.641L641.344 579.844C633.01 592.083 622.203 601.784 608.922 608.945C595.641 616.107 581.318 619.688 565.953 619.688C553.583 619.688 541.734 617.279 530.406 612.461C519.208 607.643 509.508 601.133 501.305 592.93C493.102 584.727 486.591 575.026 481.773 563.828C476.956 552.5 474.547 540.651 474.547 528.281C474.547 515.911 476.956 504.128 481.773 492.93C486.591 481.602 493.102 471.836 501.305 463.633C509.508 455.43 519.208 448.919 530.406 444.102C541.734 439.284 553.583 436.875 565.953 436.875C581.448 436.875 595.836 440.521 609.117 447.812C622.398 454.974 633.206 464.74 641.539 477.109ZM664.781 461.094L653.062 468.711C643.427 454.648 630.927 443.516 615.562 435.312C600.328 426.979 583.792 422.812 565.953 422.812C546.812 422.812 529.169 427.565 513.023 437.07C496.878 446.445 484.052 459.206 474.547 475.352C465.172 491.497 460.484 509.141 460.484 528.281C460.484 547.422 465.172 565.065 474.547 581.211C484.052 597.357 496.878 610.182 513.023 619.688C529.169 629.062 546.812 633.75 565.953 633.75C583.792 633.75 600.393 629.583 615.758 621.25C631.122 612.917 643.622 601.654 653.258 587.461L664.781 595.469C653.844 611.615 639.651 624.375 622.203 633.75C604.885 643.125 586.135 647.812 565.953 647.812C544.339 647.812 524.352 642.474 505.992 631.797C487.633 621.12 473.115 606.602 462.438 588.242C451.76 569.883 446.422 549.896 446.422 528.281C446.422 506.667 451.76 486.68 462.438 468.32C473.115 449.961 487.633 435.443 505.992 424.766C524.352 414.089 544.339 408.75 565.953 408.75C586.135 408.75 604.885 413.438 622.203 422.812C639.651 432.188 653.844 444.948 664.781 461.094ZM688.219 445.469L676.5 453.086C664.26 435.117 648.375 420.924 628.844 410.508C609.443 399.961 588.479 394.688 565.953 394.688C547.854 394.688 530.536 398.203 514 405.234C497.464 412.266 483.206 421.771 471.227 433.75C459.378 445.599 449.938 459.792 442.906 476.328C435.875 492.865 432.359 510.182 432.359 528.281C432.359 546.38 435.875 563.698 442.906 580.234C449.938 596.771 459.378 611.029 471.227 623.008C483.206 634.857 497.464 644.297 514 651.328C530.536 658.359 547.854 661.875 565.953 661.875C588.609 661.875 609.638 656.602 629.039 646.055C648.44 635.508 664.26 621.25 676.5 603.281L687.828 611.68C674.286 631.471 656.773 647.161 635.289 658.75C613.935 670.208 590.823 675.938 565.953 675.938C539.26 675.938 514.586 669.362 491.93 656.211C469.273 642.93 451.305 624.961 438.023 602.305C424.872 579.648 418.297 554.974 418.297 528.281C418.297 501.589 424.872 476.914 438.023 454.258C451.305 431.602 469.273 413.698 491.93 400.547C514.586 387.266 539.26 380.625 565.953 380.625C590.953 380.625 614.195 386.484 635.68 398.203C657.164 409.792 674.677 425.547 688.219 445.469ZM711.266 429.453L699.547 437.07C684.703 415.326 665.497 398.138 641.93 385.508C618.492 372.878 593.167 366.562 565.953 366.562C544.078 366.562 523.115 370.859 503.062 379.453C483.141 387.917 465.953 399.375 451.5 413.828C437.047 428.281 425.523 445.534 416.93 465.586C408.466 485.508 404.234 506.406 404.234 528.281C404.234 550.156 408.466 571.12 416.93 591.172C425.523 611.094 437.047 628.281 451.5 642.734C465.953 657.188 483.141 668.711 503.062 677.305C523.115 685.768 544.078 690 565.953 690C593.167 690 618.557 683.62 642.125 670.859C665.693 658.099 684.898 640.846 699.742 619.102L711.07 627.695C694.924 651.133 674.091 669.753 648.57 683.555C623.049 697.227 595.51 704.062 565.953 704.062C542.125 704.062 519.339 699.375 497.594 690C475.979 680.755 457.294 668.32 441.539 652.695C425.914 636.94 413.414 618.255 404.039 596.641C394.794 574.896 390.172 552.109 390.172 528.281C390.172 504.453 394.794 481.732 404.039 460.117C413.414 438.372 425.914 419.688 441.539 404.062C457.294 388.307 475.979 375.807 497.594 366.562C519.339 357.188 542.125 352.5 565.953 352.5C595.641 352.5 623.245 359.401 648.766 373.203C674.286 387.005 695.12 405.755 711.266 429.453ZM732.164 380.625V366.562H943.102V380.625H732.164ZM732.164 408.75V394.688H943.102V408.75H732.164ZM732.164 436.875V422.812H943.102V436.875H886.852V690H872.789V436.875H858.727V690H844.664V436.875H830.602V690H816.539V436.875H802.477V690H788.414V436.875H732.164Z" fill="black"/>
</svg>
